<svg
            width="60"
            height="60"
            viewBox="0 0 84 87"
            fill="none"
            xmlns="http://www.w3.org/2000/svg"
          >
            <path
              fill-rule="evenodd"
              clip-rule="evenodd"
              d="M22.3125 57.0666V29.8791C22.3125 29.8791 7.94063 27.0924 5.64375 29.4713C5.39438 29.7296 5.25 30.083 5.25 30.45V58.3444C5.25 62.2186 22.3125 57.0666 22.3125 57.0666Z"
              fill="#1D83F2"
            />
            <path
              fill-rule="evenodd"
              clip-rule="evenodd"
              d="M47.25 43.5272V57.0666H22.1025L21.5513 74.7928H58.4194C61.6744 74.7928 64.3256 72.0605 64.3256 68.6757V43.5272H47.2631H47.25Z"
              fill="#0BA84A"
            />
            <path
              fill-rule="evenodd"
              clip-rule="evenodd"
              d="M5.25 68.6756C5.25 72.0604 7.88812 74.7928 11.1562 74.7928H22.3125V57.0665H5.25V68.6756Z"
              fill="#0267CC"
            />
            <path
              fill-rule="evenodd"
              clip-rule="evenodd"
              d="M22.1419 29.879H47.25V43.5272L64.3125 43.5V18.3515C64.3125 16.7203 63.6825 15.1706 62.58 14.0151C61.4644 12.8597 59.955 12.2207 58.3931 12.2343C47.8537 12.2751 26.5912 12.2207 22.8769 12.2072C22.5225 12.2072 22.1812 12.3567 21.9187 12.615C19.6219 15.0075 22.155 29.879 22.155 29.879H22.1419Z"
              fill="#F9B406"
            />
            <path
              fill-rule="evenodd"
              clip-rule="evenodd"
              d="M74.55 67.425C65.9794 59.9076 47.25 43.5271 47.25 43.5271C47.25 43.5271 65.9662 27.1331 74.55 19.6293C75.3112 18.9632 76.3744 18.8137 77.28 19.2623C78.1856 19.6973 78.7631 20.6489 78.7631 21.6956V65.3723C78.7631 66.419 78.1856 67.357 77.28 67.8056C76.3744 68.2542 75.3112 68.1046 74.55 67.4386V67.425Z"
              fill="#0BA84A"
            />
            <path
              fill-rule="evenodd"
              clip-rule="evenodd"
              d="M64.3125 28.5876V58.4667L47.25 43.5272L64.3125 28.5876Z"
              fill="#097A2B"
            />
            <path
              fill-rule="evenodd"
              clip-rule="evenodd"
              d="M22.3125 29.8791V12.3296C22.1681 12.3976 22.0369 12.4927 21.9187 12.6151C19.6219 15.0076 7.9406 27.0924 5.64373 29.4713C5.5256 29.5937 5.43373 29.7296 5.3681 29.8791H22.3125Z"
              fill="#EF3930"
            />
          </svg>
