          <svg
            width="50"
            height="50"
            viewBox="0 0 84 87"
            fill="none"
            xmlns="http://www.w3.org/2000/svg"
          >
            <path
              fill-rule="evenodd"
              clip-rule="evenodd"
              d="M6.82499 64.6518C6.82499 64.6518 17.325 78.7485 17.955 79.3738C19.4775 80.8828 21.5381 81.6712 23.6381 81.5489C34.6237 80.9779 59.7844 79.6729 70.3237 79.1292C74.4056 78.9117 77.6081 75.4317 77.6212 71.204L77.7525 22.9462C77.7525 20.241 76.4006 17.7398 74.1825 16.326C70.2581 13.8248 62.4881 8.86307 60.1387 7.24541C58.2225 5.92682 55.9387 5.30151 53.6287 5.45104C45.8062 5.9676 22.8506 7.50369 13.1381 8.1426C9.25312 8.40088 6.26062 11.7042 6.26062 15.6735V62.9526C6.26062 63.5643 6.45749 64.1624 6.82499 64.6382V64.6518ZM72.4631 25.3523V25.3795L72.3319 71.1904C72.3319 72.509 71.3212 73.5965 70.0481 73.6645L23.3625 76.0842C22.7062 76.1249 22.0631 75.8667 21.5906 75.4045C21.1181 74.9423 20.8425 74.2898 20.8425 73.6101V28.1526C20.8425 26.834 21.8269 25.7465 23.1 25.6785L69.9169 22.8782C70.5731 22.8374 71.2162 23.0821 71.7019 23.5579C72.1744 24.0201 72.45 24.6726 72.45 25.3523H72.4631ZM56.7394 54.4701V35.8195C55.9125 34.8407 54.6 34.9087 52.71 34.3106C52.5787 34.2698 52.4606 34.161 52.4081 34.0251C52.3556 33.8892 52.3687 33.726 52.4475 33.6037C54.705 30.1645 61.1494 32.3123 65.3494 30.9393C65.4675 30.8985 65.6119 30.9121 65.7169 31.0073C65.8219 31.1024 65.8612 31.2384 65.835 31.3743C65.4281 33.2639 63.9975 34.229 61.9631 34.6368V65.3179C61.9631 66.3374 61.3725 67.2754 60.4537 67.656C59.6137 68.0095 58.7344 68.3901 58.7344 68.3901C56.7131 69.4776 54.2325 68.7843 52.9987 66.7996L37.9575 42.5076V64.6246C38.7712 65.6034 40.0969 65.5354 41.9869 66.1335C42.1181 66.1743 42.2362 66.2831 42.2887 66.419C42.3412 66.5549 42.3281 66.7181 42.2494 66.8404C39.9787 70.2796 33.5475 68.1318 29.3475 69.5048C29.2294 69.5592 29.085 69.532 28.98 69.4368C28.875 69.3553 28.8356 69.2057 28.8619 69.0698C29.2687 67.1803 30.6994 66.2151 32.7337 65.8073V36.839L28.77 36.4448C28.77 36.4448 29.0456 33.1143 32.8256 32.7337C34.6894 32.5434 39.5587 32.3259 41.3175 32.2443C41.7112 32.2307 42.0919 32.421 42.3281 32.7609L56.7525 54.4429L56.7394 54.4701ZM19.7269 19.4118C20.4487 19.9828 21.3544 20.2682 22.26 20.2138C28.9406 19.8196 57.4612 18.134 64.5356 17.7126C64.7587 17.699 64.9425 17.5359 64.995 17.3184C65.0475 17.1009 64.9556 16.8698 64.7719 16.7474C61.635 14.722 58.5506 12.7373 57.2119 11.8129C56.2537 11.1604 55.1119 10.8478 53.9569 10.9157C53.9569 10.9157 21.5381 12.7645 14.8706 13.5121C14.0306 13.6073 13.8469 13.9199 13.8206 14.0423C13.7025 14.4637 13.8469 14.7764 14.175 15.0482C15.5137 16.1085 18.2044 18.2156 19.7269 19.4118Z"
              fill="white"
            />
          </svg>
