         <svg
            width="60"
            height="60"
            viewBox="0 0 84 87"
            fill="none"
            xmlns="http://www.w3.org/2000/svg"
          >
            <path
              fill-rule="evenodd"
              clip-rule="evenodd"
              d="M78.75 16.3125C78.75 10.3041 74.0512 5.4375 68.25 5.4375H15.75C9.94875 5.4375 5.25 10.3041 5.25 16.3125V70.6875C5.25 76.6959 9.94875 81.5625 15.75 81.5625H68.25C74.0512 81.5625 78.75 76.6959 78.75 70.6875V16.3125Z"
              fill="#3D173F"
            />
            <path
              fill-rule="evenodd"
              clip-rule="evenodd"
              d="M52.5 25.2437C52.5 23.9794 52.0144 22.7696 51.1481 21.8724C50.2819 20.9752 49.1137 20.4858 47.9062 20.4858C45.3731 20.4858 43.3125 22.6201 43.3125 25.2437V37.478C43.3125 38.7422 43.7981 39.9521 44.6513 40.8357C45.5175 41.7329 46.6856 42.2358 47.9062 42.2358C50.4394 42.2358 52.5 40.1016 52.5 37.478V25.2437ZM64.1156 37.3829C64.1156 34.8137 62.1075 32.7202 59.6137 32.7202C57.1331 32.7202 55.1119 34.8001 55.1119 37.3829V41.2299C55.1119 41.4474 55.1906 41.6513 55.335 41.8008C55.4794 41.9504 55.6763 42.0319 55.8863 42.0319H59.6006C62.0812 42.0319 64.1025 39.9521 64.1025 37.3693L64.1156 37.3829Z"
              fill="#25CC80"
            />
            <path
              fill-rule="evenodd"
              clip-rule="evenodd"
              d="M31.5 61.7563C31.5 63.0206 31.9856 64.2304 32.8387 65.1276C33.705 66.0248 34.8731 66.5142 36.0937 66.5142C38.6269 66.5142 40.6875 64.3799 40.6875 61.7563V49.522C40.6875 48.2578 40.2019 47.0479 39.3356 46.1643C38.4694 45.2671 37.3012 44.7642 36.0937 44.7642C33.5606 44.7642 31.5 46.8984 31.5 49.522V61.7563ZM19.8844 49.6171C19.8844 52.1863 21.8925 54.2798 24.3862 54.2798C26.8669 54.2798 28.8881 52.1999 28.8881 49.6171V45.7701C28.8881 45.5526 28.8094 45.3487 28.6519 45.1992C28.5075 45.0496 28.3106 44.9681 28.1006 44.9681H24.3862C21.9056 44.9681 19.8844 47.0479 19.8844 49.6307V49.6171Z"
              fill="#E0196A"
            />
            <path
              fill-rule="evenodd"
              clip-rule="evenodd"
              d="M47.9981 66.5142C50.4787 66.5142 52.5 64.4344 52.5 61.8516C52.5 59.2824 50.4919 57.1889 47.9981 57.1889H44.2838C44.0738 57.1889 43.8769 57.2705 43.7325 57.42C43.5881 57.5695 43.4962 57.7734 43.4962 57.9909V61.838C43.4962 64.4072 45.5044 66.5006 47.9981 66.5006V66.5142ZM59.7188 54.4838C60.9394 54.4838 62.1075 53.9808 62.9606 53.0836C63.8269 52.1864 64.3125 50.9766 64.3125 49.726C64.3125 47.1024 62.2519 44.9681 59.7188 44.9681H47.9062C46.6856 44.9681 45.5175 45.4711 44.6513 46.3547C43.785 47.2519 43.3125 48.4617 43.3125 49.726C43.3125 52.3495 45.3731 54.4838 47.9062 54.4838H59.7188Z"
              fill="#EFA511"
            />
            <path
              fill-rule="evenodd"
              clip-rule="evenodd"
              d="M24.2812 32.5299C23.0606 32.5299 21.8925 33.0328 21.0263 33.93C20.16 34.8272 19.6875 36.037 19.6875 37.2877C19.6875 39.9113 21.7481 42.0455 24.2812 42.0455H36.0938C37.3144 42.0455 38.4825 41.5425 39.3356 40.6589C40.1887 39.7753 40.6875 38.5519 40.6875 37.2877C40.6875 34.6641 38.6269 32.5299 36.0938 32.5299H24.2812ZM36.0019 20.4994C33.5213 20.4994 31.5 22.5792 31.5 25.162C31.5 27.7313 33.5081 29.8247 36.0019 29.8247H39.7162C39.9263 29.8247 40.1231 29.7431 40.2675 29.5936C40.4119 29.4441 40.4906 29.2402 40.4906 29.0227V25.1756C40.4906 22.6064 38.4825 20.513 35.9888 20.513L36.0019 20.4994Z"
              fill="#20BCE0"
            />
          </svg>