<svg width="800" height="800" viewBox="0 0 800 800" fill="none" xmlns="http://www.w3.org/2000/svg">
<path d="M133.333 316.667C179.357 316.667 216.667 353.977 216.667 400C216.667 446.023 179.357 483.333 133.333 483.333C87.3097 483.333 50 446.023 50 400C50 353.977 87.3097 316.667 133.333 316.667Z" fill="#70AA12"/>
<path d="M400 316.667C446.023 316.667 483.333 353.977 483.333 400C483.333 446.023 446.023 483.333 400 483.333C353.977 483.333 316.667 446.023 316.667 400C316.667 353.977 353.977 316.667 400 316.667Z" fill="#70AA12"/>
<path d="M750 400C750 353.977 712.69 316.667 666.666 316.667C620.643 316.667 583.333 353.977 583.333 400C583.333 446.023 620.643 483.333 666.666 483.333C712.69 483.333 750 446.023 750 400Z" fill="#70AA12"/>
</svg>
